<?xml version="1.0" encoding="utf-8"?>
<!-- Generator: Adobe Illustrator 26.3.1, SVG Export Plug-In . SVG Version: 6.00 Build 0)  -->
<svg version="1.1" id="Layer_1" xmlns="http://www.w3.org/2000/svg" xmlns:xlink="http://www.w3.org/1999/xlink" x="0px" y="0px"
	 viewBox="0 0 809.5 393.3" style="enable-background:new 0 0 809.5 393.3;" xml:space="preserve">
<path d="M796.8,165.4h-38.7v-52.3c0-7-5.7-12.7-12.7-12.7h-41.9V69.3c0-7-5.7-12.7-12.7-12.7h-41.9V27.4c0-7-5.7-12.7-12.7-12.7
	h-54.6c-7,0-12.7,5.7-12.7,12.7v138.1H250V27.4c0-7-5.7-12.7-12.7-12.7h-54.6c-7,0-12.7,5.7-12.7,12.7v29.3h-41.9
	c-7,0-12.7,5.7-12.7,12.7v31.2H73.6c-7,0-12.7,5.7-12.7,12.7v52.3H22.1c-7,0-12.7,5.7-12.7,12.7v45.1c0,7,5.7,12.7,12.7,12.7h38.7
	v52.3c0,7,5.7,12.7,12.7,12.7h41.9V332c0,7,5.7,12.7,12.7,12.7H170V374c0,7,5.7,12.7,12.7,12.7h54.6c7,0,12.7-5.7,12.7-12.7V235.9
	h319V374c0,7,5.7,12.7,12.7,12.7h54.6c7,0,12.7-5.7,12.7-12.7v-29.3h41.9c7,0,12.7-5.7,12.7-12.7v-31.2h41.9c7,0,12.7-5.7,12.7-12.7
	v-52.3h38.7c7,0,12.7-5.7,12.7-12.7v-45.1C809.5,171.1,803.8,165.4,796.8,165.4z M60.9,210.5H34.8v-19.7h26.1V210.5z M115.5,275.5
	H86.2V125.8h29.2V275.5z M170,319.3h-29.2v-31.2v-175V82H170V319.3z M224.6,361.3h-29.2V332V69.3V40h29.2V361.3z M569,210.5H250
	v-19.7h319V210.5z M623.5,69.3V332v29.3h-29.2V40h29.2V69.3z M678.1,113.2v175v31.2h-29.2V82h29.2V113.2z M732.7,275.5h-29.2V125.8
	h29.2V275.5z M784.1,210.5h-26.1v-19.7h26.1V210.5z"/>
</svg>
